<svg xmlns="http://www.w3.org/2000/svg" fill="none" width="65" height="65" viewBox="0 0 65 65">
  <g clip-path="url(#a)">
    <rect width="65" height="65" fill="#FEF7E1" rx="14"/>
    <g filter="url(#b)">
      <g clip-path="url(#c)">
        <path fill="#fff" d="M8 18a6 6 0 0 1 6-6h37a6 6 0 0 1 6 6v59H8V18Z"/>
        <path fill="#F5F5F5" d="M12 16h17v6H12zM42 18h11v2H42zM12 45h41v7H12zM12 54h41v25H12z"/>
        <rect width="12" height="15" x="12" y="26" fill="#F5F5F5" rx="1"/>
        <rect width="13" height="15" x="26" y="26" fill="#FEEBEE" rx="1"/>
        <rect width="12" height="15" x="41" y="26" fill="#F5F5F5" rx="1"/>
        <path fill="#DEDEDE" d="M18 33a2.3 2.3 0 1 0 0-4.6 2.3 2.3 0 0 0 0 4.6ZM18 34.1c-2.3 0-4.2 1.6-4.2 3.5 0 .1.1.2.3.2h7.8c.2 0 .3 0 .3-.2 0-2-1.9-3.5-4.2-3.5Z"/>
        <path fill="#E60A2B" d="M32.5 33.5a2.3 2.3 0 1 0 0-4.6 2.3 2.3 0 0 0 0 4.6ZM32.5 34.6c-2.3 0-4.2 1.6-4.2 3.5 0 .1.1.2.3.2h7.8c.2 0 .3 0 .3-.2 0-2-1.9-3.5-4.2-3.5Z"/>
        <path fill="#DEDEDE" d="M47 33.5a2.3 2.3 0 1 0 0-4.6 2.3 2.3 0 0 0 0 4.6ZM47 34.6c-2.3 0-4.2 1.6-4.2 3.5 0 .1.1.2.3.2h7.8c.2 0 .3 0 .3-.2 0-2-1.9-3.5-4.2-3.5Z"/>
      </g>
    </g>
  </g>
  <rect width="64.4" height="64.4" x=".3" y=".3" stroke="#FDEDBE" stroke-width=".6" rx="13.7"/>
  <defs>
    <clipPath id="a">
      <rect width="65" height="65" fill="#fff" rx="14"/>
    </clipPath>
    <clipPath id="c">
      <path fill="#fff" d="M8 18a6 6 0 0 1 6-6h37a6 6 0 0 1 6 6v59H8V18Z"/>
    </clipPath>
    <filter id="b" width="69" height="85" x="-2" y="6" color-interpolation-filters="sRGB" filterUnits="userSpaceOnUse">
      <feFlood flood-opacity="0" result="BackgroundImageFix"/>
      <feColorMatrix in="SourceAlpha" result="hardAlpha" values="0 0 0 0 0 0 0 0 0 0 0 0 0 0 0 0 0 0 127 0"/>
      <feOffset dy="4"/>
      <feGaussianBlur stdDeviation="5"/>
      <feComposite in2="hardAlpha" operator="out"/>
      <feColorMatrix values="0 0 0 0 0.4 0 0 0 0 0.4 0 0 0 0 0.4 0 0 0 0.1 0"/>
      <feBlend in2="BackgroundImageFix" result="effect1_dropShadow_0_141"/>
      <feBlend in="SourceGraphic" in2="effect1_dropShadow_0_141" result="shape"/>
    </filter>
  </defs>
</svg>